<?xml version="1.0" encoding="utf-8"?>
<!-- Generator: Adobe Illustrator 21.1.0, SVG Export Plug-In . SVG Version: 6.00 Build 0)  -->
<svg version="1.1" id="Layer_1" xmlns="http://www.w3.org/2000/svg" xmlns:xlink="http://www.w3.org/1999/xlink" x="0px" y="0px"
	 viewBox="0 0 56.69 56.69" style="enable-background:new 0 0 56.69 56.69;" xml:space="preserve">
<style type="text/css">
	.st0{fill:#008066;}
	.st1{fill:#FFFFFF;}
</style>
<title>Subte de Buenos Aires - Línea D</title>
<path class="st0" d="M56.6875,28.3358c0,15.6612-12.6906,28.3518-28.3477,28.3518C12.6946,56.6876,0,43.9969,0,28.3358
	C0,12.7146,12.6946,0,28.3398,0C43.9969,0,56.6875,12.7146,56.6875,28.3358"/>
<path class="st1" d="M18.4906,13.7766h7.9577c8.9135,0,16.8035,3.0151,16.8035,14.5612c0,11.5661-7.89,14.5731-16.8035,14.5731
	h-7.9577V13.7766z M24.3135,38.3068h3.2539c4.867,0,9.5986-3.6401,9.5986-9.969c0-6.3367-4.7316-9.9809-9.5986-9.9809h-3.2539
	V38.3068z"/>
</svg>
