<?xml version="1.0" encoding="utf-8"?>
<!-- Generator: Adobe Illustrator 21.1.0, SVG Export Plug-In . SVG Version: 6.00 Build 0)  -->
<svg version="1.1" id="Layer_1" xmlns="http://www.w3.org/2000/svg" xmlns:xlink="http://www.w3.org/1999/xlink" x="0px" y="0px"
	 viewBox="0 0 56.69 56.69" style="enable-background:new 0 0 56.69 56.69;" xml:space="preserve">
<style type="text/css">
	.st0{fill:#fdbb2e;}
	.st1{fill:#FFFFFF;}
</style>
<title>Subte de Buenos Aires - Premetro</title>
<path class="st0" d="M56.6875,28.3358c0,15.6612-12.6906,28.3518-28.3477,28.3518C12.6946,56.6876,0,43.9969,0,28.3358
	C0,12.7146,12.6946,0,28.3398,0C43.9969,0,56.6875,12.7146,56.6875,28.3358"/>
<path class="st1" d="M20.0079,13.7757h7.3696c6.3543,0,12.1434,1.8354,12.1434,8.8029c0,6.8083-4.9609,9.2648-11.2117,9.2648
	h-2.4645v11.0684h-5.8368V13.7757z M25.8447,27.2528h2.0424c2.9304,0,5.5183-0.9436,5.5183-4.3357
	c0-3.3763-2.5202-4.5547-5.5183-4.5547h-2.0424V27.2528z"/>
</svg>
